<?xml version="1.0" encoding="UTF-8"?><!DOCTYPE svg PUBLIC "-//W3C//DTD SVG 1.1//EN" "http://www.w3.org/Graphics/SVG/1.1/DTD/svg11.dtd"><svg xmlns="http://www.w3.org/2000/svg"><defs><style>.cls-1{fill:#231f20}</style><style>.cls-1{fill:#231f20}</style><style>.cls-1{fill:#231f20}</style><style>.cls-1{fill:#231f20}</style><style>.cls-1{fill:#231f20}</style><style>.cls-1{fill:#231f20}</style><style>.cls-1{fill:#231f20}</style><style>.cls-1{fill:#fff}</style><style>.cls-1{fill-rule:evenodd}</style></defs><symbol id="alert" viewBox="0 0 60 54"><title>alert_icon</title><path d="M6 48L30 6l24 42H6zm53.2-3L35.19 3a6 6 0 0 0-10.38 0L.8 44.94a6.07 6.07 0 0 0 0 6A6 6 0 0 0 6 54h48a6 6 0 0 0 5.19-3 6.08 6.08 0 0 0 .01-6.06z"/><path d="M27 20v12.6a3 3 0 1 0 6 0V20a3 3 0 1 0-6 0zM33 40.94a3 3 0 1 1-6 0 3 3 0 1 1 6 0"/></symbol><symbol id="ambulance" viewBox="0 0 110 83"><title>ambulance</title><path class="cls-1" d="M65.31 0h-9.45a2.58 2.58 0 0 0-2.58 2.57v8.16c3.44-.14 11.17-.25 14.61-.34V2.57A2.58 2.58 0 0 0 65.31 0zM21.05 57.35a12.83 12.83 0 1 0 12.9 12.82 12.86 12.86 0 0 0-12.9-12.82zm0 18a5.13 5.13 0 1 1 5.16-5.13 5.14 5.14 0 0 1-5.16 5.08zM88.94 57.35a12.83 12.83 0 1 0 12.89 12.83 12.86 12.86 0 0 0-12.89-12.83zm0 18a5.13 5.13 0 1 1 5.16-5.13 5.14 5.14 0 0 1-5.16 5.08z"/><path class="cls-1" d="M69.61 21v6h-6v6h6v6h6v-6h6v-6h-6v-6h-6zm-38.24 1.26c-2.33 5.12-5.13 10.2-7.31 15.39h23.2a1.29 1.29 0 0 0 1.29-1.28V23.54a1.29 1.29 0 0 0-1.29-1.28zM0 67.55V53.09h2.15a3.44 3.44 0 0 0 3.44-3.42v-1.76H0c0-3.56.33-5.15 6-7.08 6-2 6.29-2.15 12.09-3.79 2.5-6.12 5.17-11.63 8-17.86a6 6 0 0 1 4.82-3.5c16.43-1.83 53.2-2.87 69.7-1.23a9.37 9.37 0 0 1 8.39 8.24 119.89 119.89 0 0 1 1 14.14v.83h-2.58a1.7 1.7 0 0 0-1.72 1.68V41a1.74 1.74 0 0 0 1.72 1.74H110v24.81c0 1.5-1.84 2.57-3.44 2.57h-.43a17.19 17.19 0 0 0-34.38 0H38.24a17.19 17.19 0 0 0-34.37 0h-.43C1.84 70.12 0 69 0 67.55z"/></symbol><symbol id="bandage" viewBox="0 0 110 110"><title>bandage</title><path class="cls-1" d="M88.18 54.32l17.61 17.61a14.37 14.37 0 0 1 0 20.32l-13.54 13.54a14.37 14.37 0 0 1-20.32 0L54.32 88.18l4.06-4.06L76 101.73a8.62 8.62 0 0 0 12.19 0l13.54-13.54a8.62 8.62 0 0 0 0-12.19L84.12 58.39zM36.27 20a3.83 3.83 0 1 0 0 5.42 3.83 3.83 0 0 0 0-5.42zM25.43 30.85a3.83 3.83 0 1 0 0 5.42 3.83 3.83 0 0 0 0-5.42zm-.23-11.07a3.83 3.83 0 1 0 0 5.42 3.83 3.83 0 0 0 0-5.42zM90 73.73a3.83 3.83 0 1 1-5.42 0 3.83 3.83 0 0 1 5.42 0zM79.15 84.57a3.83 3.83 0 1 1-5.42 0 3.83 3.83 0 0 1 5.42 0zm11.07.23a3.83 3.83 0 1 1-5.42 0 3.83 3.83 0 0 1 5.42 0zm-86-46.73a14.37 14.37 0 0 1 0-20.32L17.75 4.21a14.37 14.37 0 0 1 20.32 0l17.61 17.61-4.06 4.06L34 8.27a8.62 8.62 0 0 0-12.19 0L8.27 21.81a8.62 8.62 0 0 0 0 12.19l17.61 17.61-4.06 4.06zM102.41 21.14L88.86 7.59a9.58 9.58 0 0 0-13.55 0L7.59 75.32a9.58 9.58 0 0 0 0 13.55l13.55 13.54a9.58 9.58 0 0 0 13.55 0l67.72-67.72a9.58 9.58 0 0 0 0-13.55zM25.2 90.22a3.83 3.83 0 1 1 0-5.42 3.83 3.83 0 0 1 0 5.42zm.23-11.07a3.83 3.83 0 1 1 0-5.42 3.83 3.83 0 0 1 0 5.42zM36.27 90a3.83 3.83 0 1 1 0-5.42 3.83 3.83 0 0 1 0 5.42zm9.93-9.93L29.94 63.8 34 59.74 50.26 76zM76 50.26L59.74 34l4.06-4.06L80.06 46.2zm3.15-24.83a3.83 3.83 0 1 1 0-5.42 3.83 3.83 0 0 1 0 5.42zM90 36.27a3.83 3.83 0 1 1 0-5.42 3.83 3.83 0 0 1 0 5.42zm.23-11.07a3.83 3.83 0 1 1 0-5.42 3.83 3.83 0 0 1-.01 5.42z"/></symbol><symbol id="child" viewBox="0 0 65 110"><title>child</title><path class="cls-1" d="M19.75 32.37c5.49 12.47 20.07 12.37 25.5 0 2.75 1.68 6.81-6.56 1.75-6.44.77-7.46-3.75-15.15-11.75-16.57a7.44 7.44 0 0 1-4.07-2.76 3.71 3.71 0 0 1-.75-2.92 1.65 1.65 0 0 1 2.33-.89A1.1 1.1 0 0 1 33.22 4a1.29 1.29 0 0 0 .88 1.59c2 .58 2.49-3.14.16-4.83A3.71 3.71 0 0 0 32.11 0a4.47 4.47 0 0 0-2.45.73c-2.8 1.32-4.22 6.18-2.07 9.19-6.66 2.3-10.26 9.32-9.57 16-5.08-.11-1.02 8.14 1.73 6.45zm14.53-17.95c4.89.83 7.64 5.32 7.64 9.92a15.21 15.21 0 0 1-3.68 9.54 7.6 7.6 0 0 1-11.51 0 15.24 15.24 0 0 1-3.67-9.54c.01-6.34 4.81-11.01 11.22-9.92z"/><path class="cls-1" d="M64.59 72.9C61 59.56 52.14 49.42 45.38 45.63c-1.45-.82-3.53-1.55-4.64-.79a14.42 14.42 0 0 1-16.47 0c-1.12-.76-3.19 0-4.64.79C12.86 49.42 4 59.56.41 72.9c-.51 1.86-.85 4.07.88 5.5 2.4 2 6.52 1.83 7.78-2 1.89-5.72 3.86-10.88 7.28-15.1a1.29 1.29 0 0 1 2.28 1c-1.71 13.8-1 37.44-1.11 38.22-.2 1.58 0 .58-4.79 2.63-2.15.85-3.65 6.85 2.59 6.85h7.31c2.93 0 5-.93 5.91-2.34 1.06-1.65 1-11.13 1-16.14 0-1.93.59-3 1.29-3h3.46c.7 0 1.29 1.07 1.29 3 0 5-.08 14.49 1 16.14.9 1.41 3 2.34 5.91 2.34h7.31c6.24 0 4.74-6 2.58-6.87-4.8-2.05-4.59-1.05-4.79-2.63-.1-.78.53-24.42-1.18-38.22a1.29 1.29 0 0 1 2.29-1c3.41 4.22 5.39 9.39 7.28 15.1 1.26 3.82 5.38 4 7.78 2 1.68-1.38 1.34-3.63.83-5.48zM32.5 77.63a3.44 3.44 0 1 1 3.42-3.44 3.43 3.43 0 0 1-3.42 3.44zm0-14.39a3.44 3.44 0 1 1 3.42-3.44 3.43 3.43 0 0 1-3.42 3.44z"/></symbol><symbol id="doctor" viewBox="0 0 110 110"><title>doctor</title><path class="cls-1" d="M46 66.71a26.31 26.31 0 0 0 3 5.59c1.81 2.7 3.91 5.22 6 7.7 2.1-2.52 4.2-5.07 6-7.74a26.32 26.32 0 0 0 3-5.59 27.25 27.25 0 0 1-9 1.43 27.24 27.24 0 0 1-9-1.39zm32.18-9.29c.17-11.28.22-28.35-1.66-38.26C74.29 7.42 68.25 0 55.12 0S35.91 7.42 33.63 19.16C31.75 28.83 31.7 46 31.82 57.44c2.67-1.26 5.3-2.38 7.54-3.32.62-.26 8.3-3.18 10.72-4.11-4.58-3.32-8.91-11.77-9.93-16.88-.55.72-1 3.73-1.11 5.49a16.13 16.13 0 0 1-.51-8.62c1.22-6.31 4.34-12.14 9.17-15.81 5.47 8.22 12.81 10.06 19.9 14.43-.42-1-.65-1.54-.68-1.58-5.87-7.2-9.57-9.11-11.93-12C63.75 18.37 68.92 22.74 71 31a34.36 34.36 0 0 1 .49 12c-.31-3.94-1.09-8-1.82-9.45-1.54 6.06-5.41 13.79-9.2 16.45l10.43 4.22c2.18.91 4.7 1.99 7.26 3.2z"/><path class="cls-1" d="M19.59 69.64c2.32-3.24 8.24-6.54 14.34-9.38-3.19 9.14-2.23 21 1.18 29.61A4.51 4.51 0 1 0 38 88.5c-3.3-8.46-4.14-20.71-.19-29.32l.44-.86c1.53-.66 3-1.28 4.41-1.86.4-.17.58.28.45.54-4.45 9.2 2.89 17.53 10.57 26.81l-1.8 5.41 3.12-3.8L56.16 84c7.76-9.36 15.23-17.75 10.73-27-.13-.26 0-.71.45-.54 2.69 1.12 5.76 2.41 8.77 3.81a22.68 22.68 0 0 1-.43 9.31c-4.37-.27-8.44 2.32-9.92 7.37-2 6.84-8.76 17.55.21 19.57a1.61 1.61 0 0 0 .7-3.13c-2-.46-2.25-2.09-1.77-4.23.69-3.09 2.91-7.79 3.94-11.3 2.45-8.32 13.9-5.74 12.55 2.83-.58 3.66-.59 8.85-1.27 11.89-.48 2.14-1.38 3.52-3.41 3.06a1.61 1.61 0 0 0-.7 3.13c9 2 7.46-10.6 8.56-17.6.81-5.17-1.7-9.17-5.75-10.87a28.26 28.26 0 0 0 .75-8.35c4.76 2.42 9 5.07 10.86 7.69 3.3 4.6 4.85 31.21 5.76 40.36H13.81c.86-8.66 2.55-35.85 5.78-40.36z"/></symbol><symbol id="download" viewBox="0 0 54 54"><path d="M47.2 33.8v13.4H6.8V33.8H0V54h54V33.8z"/><path d="M40.5 20.2h-6.7V0H20.2v20.2h-6.7L27 40.5z"/></symbol><symbol id="elderly" viewBox="0 0 183 234"><title>elderly</title><path class="cls-1" d="M122.76 97.82a10.06 10.06 0 0 1-10.22 17.32L81.8 97a10 10 0 0 1-3.8-4.13L67.08 74.94A114.88 114.88 0 0 0 55.8 97.36c-4.21 11.22-6.71 19.21-8.06 30.93l15 42.06A45.77 45.77 0 0 1 65.35 189l-2.23 34.9A10.07 10.07 0 0 1 53.06 234h-4.28c-5.55 0-9.75-5.16-9.41-10.71l2.61-41-13.17-36.88-1.95 1.38L31.44 172a45.77 45.77 0 0 1-.25 18l-7.52 35.4a10.08 10.08 0 0 1-10 8.58H10a9.93 9.93 0 0 1-2-.22 10.06 10.06 0 0 1-7.78-11.93L9 180.65 2.32 144c-4.79-26.4 4.46-52.3 17.48-75.2C28.37 53.74 39.17 42 51.53 34.08a13.13 13.13 0 0 1 5.8-2.48 10 10 0 0 1 9.78 4.77l27 44.52zM109.33 2.63C98.71-3.21 85.13 1 79 12s-4.93 29.14 5.69 35 26.65-2.79 32.77-13.83 2.49-24.7-8.13-30.54zM101.11 234l21.63-106a5.42 5.42 0 0 1 .83-2c1.79-3 3.51-6.06 5.22-9.15s3.27-5.91 5.62-9.78a5.48 5.48 0 0 1 7.37-1.92c6.84 3.88 12.91 8.63 17.34 14.6a36.82 36.82 0 0 1 7.41 22.54v48.62a22 22 0 1 1-11 0V171h-30.41l-12.84 63zm32.17-103l-5.92 29h28.2v-17.74a26.16 26.16 0 0 0-5.22-16 39.2 39.2 0 0 0-9.37-8.75c-.86 1.53-1.72 3.07-2.57 4.61-1.53 2.7-3.04 5.44-5.13 8.88zm35.53 73.32a10.94 10.94 0 1 0 3.22 7.74 11 11 0 0 0-3.23-7.71z"/></symbol><symbol id="facebook" viewBox="0 0 90 90"><path d="M90 15.001C90 7.119 82.884 0 75 0H15C7.116 0 0 7.119 0 15.001v59.998C0 82.881 7.116 90 15.001 90H45V56H34V41h11v-5.844C45 25.077 52.568 16 61.875 16H74v15H61.875C60.548 31 59 32.611 59 35.024V41h15v15H59v34h16c7.884 0 15-7.119 15-15.001V15.001z"/></symbol><symbol id="globe" viewBox="0 0 110 110"><title>globe</title><path class="cls-1" d="M55.87 21.77a51.75 51.75 0 0 0 10.2-1.34l-.34-.68a40.15 40.15 0 0 0-9.86-12.54zm-13.62-1.36a51.7 51.7 0 0 0 10.18 1.36V7.21a40.15 40.15 0 0 0-9.86 12.54zm13.62 20.41H71a50.64 50.64 0 0 0-3.56-17.2 55 55 0 0 1-11.62 1.59zm10.19 23.82a51.7 51.7 0 0 0-10.19-1.34v14.56a40.22 40.22 0 0 0 9.91-12.66zM82 17.57a49.62 49.62 0 0 1-11.2 5.11 54.09 54.09 0 0 1 3.69 18.14h17A37.23 37.23 0 0 0 82 17.57zM59.11 5.48a44.07 44.07 0 0 1 9.67 12.72q.33.65.65 1.32a46.52 46.52 0 0 0 10.06-4.46 37.25 37.25 0 0 0-20.38-9.58zM28.85 15a46.51 46.51 0 0 0 10 4.47q.31-.65.64-1.28A44.07 44.07 0 0 1 49.2 5.48 37.26 37.26 0 0 0 28.85 15zm-12 25.81h17a54.08 54.08 0 0 1 3.7-18.17 49.53 49.53 0 0 1-11.13-5.14 37.23 37.23 0 0 0-9.61 23.32zM54.15 0a42.54 42.54 0 0 1 35.5 66l-7.23 1a37.23 37.23 0 0 0 9.08-22.75h-17a54.1 54.1 0 0 1-3.7 18.15 49.8 49.8 0 0 1 10.57 4.75h-.23a17.43 17.43 0 0 0-4.54 1.26 47.35 47.35 0 0 0-7.17-2.88q-.29.6-.59 1.2a44.05 44.05 0 0 1-9.73 12.84 37.3 37.3 0 0 0 4.32-.83l-4.55 3.91A9.13 9.13 0 0 0 56.94 85q-1.38.09-2.79.09A42.59 42.59 0 0 1 16.7 62.73c1.09.07 2.17.12 3.23.13s1.88 0 2.83 0a37.57 37.57 0 0 0 3.62 4.72 48.77 48.77 0 0 1 8-4A14.64 14.64 0 0 0 37.74 66a46.22 46.22 0 0 0-8.88 4.09 37.25 37.25 0 0 0 20.34 9.53 44.06 44.06 0 0 1-9.73-12.84 14.56 14.56 0 0 0 4.39.86 39.42 39.42 0 0 0 8.61 10.28V65.2a14.68 14.68 0 0 0 4.85-5.27 54.93 54.93 0 0 1 10.2 1.53 50.63 50.63 0 0 0 3.57-17.2H56.15a14.69 14.69 0 0 0-3.71-3.5V25.21a55.08 55.08 0 0 1-11.61-1.61 50.55 50.55 0 0 0-3.55 16.65 14.68 14.68 0 0 0-4.57 4h-15.9a37.48 37.48 0 0 0 .52 4.75 27.86 27.86 0 0 1-5.33-.85 42.89 42.89 0 0 1-.37-5.61A42.54 42.54 0 0 1 54.15 0z"/><path class="cls-1" d="M61.7 93.36l-.51-.58a4.83 4.83 0 0 1 .49-6.86L75 74.47a12.62 12.62 0 0 1 6.72-3l16.14-2.26a43 43 0 0 0 5.14-8.09 18 18 0 0 0 1.87-7.82 18.45 18.45 0 0 0-3.88-11 47.05 47.05 0 0 0-.76-8.19c6.32 5.29 9.69 11.89 9.77 19.15a23 23 0 0 1-2.34 10 48.71 48.71 0 0 1-5.95 9.35l-2.3 16.5a12.61 12.61 0 0 1-3 6.72l-11.49 12.48a4.83 4.83 0 0 1-6.86.49l-.58-.51a5.22 5.22 0 1 1 3.4-3.87l.34.3 11.25-12.24a7.91 7.91 0 0 0 1.23-1.9 11.48 11.48 0 0 0 .22-8.2 9.9 9.9 0 0 0-5.45-5.46 11.48 11.48 0 0 0-8.2.22 7.91 7.91 0 0 0-1.9 1.23l-13.1 11.25.3.34a5.21 5.21 0 1 1-3.87 3.41zM96.25 74.6l-3.88.56a13.29 13.29 0 0 1 3.34 3.35zm-62-17.1C23.76 59-.22 60.94 0 45.5c.07-4.56 2-9.31 8.48-13.36a46.84 46.84 0 0 0-1 7 7.45 7.45 0 0 0 1 11.8c6.21 3.68 17.88 2.54 24.81 1.53a11.15 11.15 0 1 1 .94 5.05zm14.48-8.77A6 6 0 1 0 50.44 53a6 6 0 0 0-1.76-4.27zm-4.25.82A3.44 3.44 0 1 1 41 53a3.44 3.44 0 0 1 3.43-3.46z"/></symbol><symbol id="heart" viewBox="0 0 110 105.85"><title>heart</title><path class="cls-1" d="M55 10.28c20-21.84 55-6.71 55 24.88 0 26.27-34.8 59.75-55 70.69-14.81-8-37.46-28.15-48.5-48.68h5.9a100.64 100.64 0 0 0 7.38 10.78c10.57 13.58 24.57 25.6 35.22 32 10.66-6.38 24.65-18.4 35.22-32 8.48-10.9 14.62-22.63 14.62-32.79 0-9.8-3.84-17.71-9.54-22.93A27.41 27.41 0 0 0 86.93 7a25.52 25.52 0 0 0-9.42-1.81 25.15 25.15 0 0 0-18.72 8.59q-.15.17-.32.32a5.13 5.13 0 0 1-7.25-.32 25.15 25.15 0 0 0-18.73-8.62A25.52 25.52 0 0 0 23.07 7a27.41 27.41 0 0 0-8.37 5.26c-5.7 5.19-9.54 13.1-9.54 22.9A31.08 31.08 0 0 0 6.24 43H.94A35 35 0 0 1 0 35.16C0 3.57 35-11.56 55 10.28z"/><path class="cls-1" d="M0 47.71h18.86L27 40.32a2.57 2.57 0 0 1 4.15 1.06l4.41 12.52 8.14-28.52a2.58 2.58 0 0 1 5 .3L57 61.85l6.88-25.36a2.58 2.58 0 0 1 4.78-.49l6.82 11.7h7.1a5.16 5.16 0 1 1 .5 5.16H74a2.57 2.57 0 0 1-2.23-1.28l-4.55-7.81-8 29.37a2.57 2.57 0 0 1-5-.11l-8.31-36.6-7.62 26.67a2.57 2.57 0 0 1-4.9.14l-5.78-16.52L21.74 52a2.57 2.57 0 0 1-1.9.84H0z"/></symbol><symbol id="hospital" viewBox="0 0 110 110"><title>hospital</title><path d="M66.1 0H43.9c-2.8 0-5 2.3-5 5.1v22.3c0 2.8 2.2 5 5 5.1H66c2.8 0 5-2.3 5-5.1V5.1c.1-2.8-2.2-5.1-4.9-5.1zm.9 20.2h-8v8.1h-8v-8.1h-8v-8.1h8V4h8v8.1h8v8.1zM104.8 43.5c0-1.4 1.2-2.6 2.6-2.6 1.4 0 2.6 1.2 2.6 2.6V110h-5.2V43.5zM9.5 110V83h90.9v27h-5.2V88.2H14.7V110H9.5zm67.2-40.1H55V58.5h-3.5v11.3H48V58.5H19c-5.3 0-9.5 4.3-9.5 9.6v10.5h90.9V65.2c0-.7-.6-1.3-1.3-1.3h-.4l-22 6zM0 62.4c0-1.4 1.2-2.6 2.6-2.6s2.6 1.2 2.6 2.6V110H0V62.4z"/><path d="M84.1 63.2l-.1-.4c-1.4-5.3-6.9-8.5-12.2-7.1l-10.7 2.8h-2.8v7.8h13.9l11.9-3.1z"/><ellipse cx="92.2" cy="52.5" rx="8.2" ry="8.3"/></symbol><symbol id="linkedin" viewBox="0 0 430.117 430.118"><path d="M398.355 0H31.782C14.229 0 .002 13.793.002 30.817v368.471c0 17.025 14.232 30.83 31.78 30.83h366.573c17.549 0 31.76-13.814 31.76-30.83V30.817C430.115 13.798 415.904 0 398.355 0zM130.4 360.038H65.413V165.845H130.4v194.193zM97.913 139.315h-.437c-21.793 0-35.92-14.904-35.92-33.563 0-19.035 14.542-33.535 36.767-33.535 22.227 0 35.899 14.496 36.331 33.535 0 18.663-14.099 33.563-36.741 33.563zm266.746 220.723h-64.966v-103.9c0-26.107-9.413-43.921-32.907-43.921-17.973 0-28.642 12.018-33.327 23.621-1.736 4.144-2.166 9.94-2.166 15.728v108.468h-64.954s.85-175.979 0-194.192h64.964v27.531c8.624-13.229 24.035-32.1 58.534-32.1 42.76 0 74.822 27.739 74.822 87.414v111.351zM230.883 193.99c.111-.182.266-.401.42-.614v.614h-.42z"/></symbol><symbol id="location-pin" viewBox="0 0 43.8 62.5"><path d="M21.9 31.3c-5.3 0-9.4-4.1-9.4-9.4s4.1-9.4 9.4-9.4 9.4 4.1 9.4 9.4-4.1 9.4-9.4 9.4zm0-31.3C9.7 0 0 9.7 0 21.9s21.9 40.6 21.9 40.6 21.9-28.4 21.9-40.6S34.1 0 21.9 0z"/></symbol><symbol id="magnifying-glass" viewBox="0 0 74 74"><title>zoom-icon</title><path class="cls-1" d="M54.69 2.53A31.76 31.76 0 0 0 42.22 0a32.21 32.21 0 0 0-25.85 51.23L1.3 66.35a4.5 4.5 0 0 0 0 6.34l.12.12a4.78 4.78 0 0 0 6.31 0l15-15.05a31.7 31.7 0 0 0 48.73-13.15A32.26 32.26 0 0 0 54.69 2.53zm3.76 46a23.08 23.08 0 1 1 5-25.14 23.13 23.13 0 0 1-4.99 25.12z"/></symbol><symbol id="map-pin" viewBox="0 0 68.085 100"><path d="M34.042 0C19.149 0 4.255 10.638 0 31.915 0 44.681 8.511 70.213 34.042 100c25.532-29.787 34.043-55.319 34.043-68.085C63.83 10.638 48.936 0 34.042 0zm0 48.936c-9.4 0-17.021-7.621-17.021-17.021s7.622-17.021 17.021-17.021c9.4 0 17.021 7.622 17.021 17.021s-7.62 17.021-17.021 17.021z"/></symbol><symbol id="medication" viewBox="0 0 109 110"><title>medication</title><path class="cls-1" d="M74.82 51.13h8.65v8.59h8.65v8.59h-8.65v8.59h-8.65v-8.58h-8.65v-8.59h8.65v-8.6zm-21.2-1.3H.86v-17.6a2.59 2.59 0 0 1 2.6-2.58H51a2.59 2.59 0 0 1 2.59 2.58v17.6zM13.83 70h24.23v6.87H13.83zm52.36-30.81a11.47 11.47 0 0 1-1.38 1.13l-.25.17c-2.35 1.56-4.71 3.09-7 4.66a1 1 0 0 0-.44 1v38.62a3.2 3.2 0 0 0 1.18 2.53 3.24 3.24 0 0 0 2.7.7l7.72-1.3a59.89 59.89 0 0 1 20.9 0l7.7 1.3a3.24 3.24 0 0 0 2.68-.7 3.2 3.2 0 0 0 1.18-2.53V46.11a1 1 0 0 0-.47-1l-7-4.65a11.58 11.58 0 0 1-1.62-1.3c-4.32.36-8.64.77-13 .77s-8.58-.38-12.9-.74z"/><path d="M100.77 21.48h-3.89v7.72a3.65 3.65 0 0 0 1.72 3.22l7.2 4.77.17.12a8.88 8.88 0 0 1 3.88 7.39v45.11a6.84 6.84 0 0 1-2 4.86 6.93 6.93 0 0 1-4.89 2h-47.6a6.85 6.85 0 0 1-.87-.05v-5.33a1.72 1.72 0 0 0 .87.23h47.58a1.74 1.74 0 0 0 1.73-1.72V44.7a3.87 3.87 0 0 0-.43-1.84 3.8 3.8 0 0 0-1.18-1.3l-.12-.07-7.2-4.77a9 9 0 0 1-3-3.24 8.91 8.91 0 0 1-1.06-4.26v-7.74H66.61v7.72a8.87 8.87 0 0 1-3.85 7.37l-.2.14-5.9 3.91v-6.2l3-2 .14-.09a3.81 3.81 0 0 0 1.2-1.28 3.86 3.86 0 0 0 .43-1.84v-7.73h-3.91V2.58A2.59 2.59 0 0 1 60.12 0h38.06a2.59 2.59 0 0 1 2.59 2.58v18.9zM50.17 55v50.7a4.27 4.27 0 0 1-1.27 3 4.33 4.33 0 0 1-3.06 1.3H8.64a4.33 4.33 0 0 1-3.06-1.26l-.2-.22a4.25 4.25 0 0 1-1.07-2.82V55h5.2v4.73h28.55v5.16H9.51v21.47h28.55v5.16H9.51v13.32H45V55z"/></symbol><symbol id="question-mark" viewBox="0 0 75 75"><path d="M52.7 31.1c-.3 1.2-.8 2.2-1.4 3-.6.8-1.2 1.6-2 2.3-.7.7-1.5 1.3-2.2 2-.9.7-1.7 1.4-2.4 2.1-.7.7-1.4 1.5-1.9 2.3-.6.8-1 1.8-1.3 3-.2.7-.3 1.6-.4 2.5-.1 1.4-.8 1.7-1.4 1.7h-4.5c-.8 0-1.5-.7-1.4-1.5 0 0 .1-2.2.3-3.6.2-1.4.5-2.6 1-3.7s1-2 1.7-2.8c.7-.8 1.5-1.6 2.4-2.4l2.1-1.8c.7-.6 1.3-1.2 1.8-1.8.5-.7.9-1.4 1.2-2.2.3-.8.4-1.8.4-3 0-1.4-.2-2.6-.7-3.5-.5-1-1.1-1.8-1.8-2.4-.7-.6-1.4-1-2.2-1.3-.8-.3-1.5-.4-2.1-.4-2.8 0-4.9.9-6.3 2.8-1.1 1.5-1.6 3.3-1.9 5.5-.2 1.6-1.2 1.9-1.7 1.9h-4.7c-.8 0-1.4-.7-1.4-1.5 0 0 .3-3.3 1-5.4.8-2.1 1.9-3.8 3.3-5.3s3.2-2.6 5.2-3.4c2-.8 4.3-1.2 6.8-1.2 2.1 0 4.1.3 5.9.9 1.8.6 3.4 1.5 4.7 2.7s2.4 2.6 3.2 4.4c.8 1.7 1.2 3.7 1.2 5.9 0 1.7-.2 3.1-.5 4.2zM41.5 61.4c0 .8-.6 1.4-1.4 1.4h-5.8c-.8 0-1.4-.6-1.4-1.4v-5.2c0-.8.6-1.4 1.4-1.4h5.8c.8 0 1.4.6 1.4 1.4v5.2zM37.5 0C16.8 0 0 16.8 0 37.5S16.8 75 37.5 75 75 58.2 75 37.5C74.9 16.8 58.2 0 37.5 0z"/></symbol><symbol id="twitter" viewBox="0 0 612 612"><path d="M612 116.258a250.714 250.714 0 0 1-72.088 19.772c25.929-15.527 45.777-40.155 55.184-69.411-24.322 14.379-51.169 24.82-79.775 30.48-22.907-24.437-55.49-39.658-91.63-39.658-69.334 0-125.551 56.217-125.551 125.513 0 9.828 1.109 19.427 3.251 28.606-104.326-5.24-196.835-55.223-258.75-131.174-10.823 18.51-16.98 40.078-16.98 63.101 0 43.559 22.181 81.993 55.835 104.479a125.556 125.556 0 0 1-56.867-15.756v1.568c0 60.806 43.291 111.554 100.693 123.104-10.517 2.83-21.607 4.398-33.08 4.398-8.107 0-15.947-.803-23.634-2.333 15.985 49.907 62.336 86.199 117.253 87.194-42.947 33.654-97.099 53.655-155.916 53.655-10.134 0-20.116-.612-29.944-1.721 55.567 35.681 121.536 56.485 192.438 56.485 230.948 0 357.188-191.291 357.188-357.188l-.421-16.253c24.666-17.593 46.005-39.697 62.794-64.861z"/></symbol><symbol id="x" viewBox="0 0 14 14"><path d="M9.442 6.983l3.044-3.036a1.731 1.731 0 1 0-2.45-2.447L6.993 4.537 3.952 1.5A1.731 1.731 0 0 0 1.5 3.943l3.04 3.039-3.04 3.037a1.731 1.731 0 0 0 2.449 2.445l3.042-3.036 3.042 3.039a1.731 1.731 0 0 0 2.45-2.445z"/></symbol></svg>